# xmcd
#
# Track frame offsets:
#	150
#	14506
#	28008
#	41985
#	55887
#	71945
#	85724
#	101732
#	118147
#	131107
#	144936
#	163464
#
# Disc length: 2402 seconds
#
# Revision: 1
# Processed by: cddbd v1.5.2PL0 Copyright (c) Steve Scherf et al.
# Submitted via: audiograbber 1.83.01
#
DISCID=b509600c
DTITLE=Peter Jordan - Peter Jordan - www.WestWärtsWalk
DYEAR=2007
DGENRE=Country
TTITLE0=Peter Jordan - Strasse der Vergangenheit
TTITLE1=Peter Jordan - So ein Tag
TTITLE2=Peter Jordan - Küss mich so als gäbe es kein Morgen
TTITLE3=Peter Jordan - Lady
TTITLE4=Peter Jordan - Einen Koffer voll Gefühle
TTITLE5=Peter Jordan - Rodeo
TTITLE6=Peter Jordan - Country und Westernmusic
TTITLE7=Peter Jordan - Spiel mir deine Weise
TTITLE8=Peter Jordan - Wie's mir geht?
TTITLE9=Peter Jordan - Ich verwette meinen Hintern
TTITLE10=Peter Jordan - Zuhause endlich daheim
TTITLE11=Peter Jordan - Das war meine Nacht
EXTD=
EXTT0=
EXTT1=
EXTT2=
EXTT3=
EXTT4=
EXTT5=
EXTT6=
EXTT7=
EXTT8=
EXTT9=
EXTT10=
EXTT11=
PLAYORDER=
